<svg data-v-5b5e5e08="" name="Apple" width="32" height="32" viewBox="0 0 32 32" fill="none" xmlns="http://www.w3.org/2000/svg">
    <path name="Apple" fill-rule="evenodd" clip-rule="evenodd" d="M32 16C32 24.8366 24.8366 32 16 32C7.16344 32 0 24.8366 0 16C0 7.16344 7.16344 0 16 0C24.8366 0 32 7.16344 32 16ZM22.8211 19.9077C22.1856 19.7072 21.6219 19.2644 21.1305 18.5799C20.6387 17.8833 20.3927 17.1043 20.3927 16.2423C20.3927 15.4633 20.6266 14.7431 21.0944 14.0826C21.3464 13.7283 21.7479 13.3152 22.2995 12.8427C21.9276 12.3824 21.5622 12.0345 21.2023 11.7983C20.5307 11.3495 19.7753 11.1253 18.9361 11.1253C18.6718 11.1254 18.4097 11.1734 18.1626 11.2671C17.9107 11.3616 17.611 11.5033 17.2632 11.6918C16.9619 11.8719 16.6341 12.0034 16.2919 12.0813C15.9682 12.1522 15.7283 12.1878 15.5726 12.1878C15.4406 12.1878 15.2544 12.1494 15.015 12.0725C14.7751 11.9961 14.4694 11.8571 14.0975 11.6566C13.7496 11.4797 13.4139 11.3588 13.0901 11.2935C12.7664 11.2286 12.4727 11.1962 12.2087 11.1962C11.0096 11.1962 10.0027 11.7038 9.18707 12.7191C8.39554 13.7343 8 15.0386 8 16.6318C8 18.3557 8.52152 20.1083 9.56501 21.891C10.608 23.6968 11.6691 24.6 12.7483 24.6C13.1202 24.6 13.594 24.4879 14.1693 24.2633C14.7209 24.0275 15.2248 23.9094 15.6801 23.9094C16.1358 23.9094 16.6694 24.0215 17.2812 24.2457C17.9408 24.4699 18.4382 24.5824 18.774 24.5824C19.6734 24.5824 20.5849 23.8974 21.508 22.5283C22.1078 21.6191 22.5455 20.7456 22.8211 19.9077ZM16.3637 11.0725C16.7115 10.954 17.0955 10.7006 17.5151 10.3111C17.9588 9.87436 18.2886 9.39592 18.5044 8.87672C18.7082 8.34547 18.8101 7.86749 18.8101 7.44278V7.24779C18.7981 7.20055 18.78 7.11811 18.7559 7C17.5211 7.28299 16.6337 7.80265 16.0941 8.55806C15.5546 9.31347 15.2785 10.2106 15.2665 11.2495C15.5064 11.2259 15.7195 11.199 15.9052 11.1698C16.0599 11.1469 16.213 11.1144 16.3637 11.0725Z" fill="#000"></path>
</svg>