<svg data-v-44c9c65c="" data-v-5b5e5e08="" width="102" height="30" viewBox="0 0 104 32" fill="none" xmlns="http://www.w3.org/2000/svg">
    <rect data-v-44c9c65c="" name="Google" x="1" y="1" width="102" height="30" rx="15" fill="white"></rect>
    <path data-v-44c9c65c="" fill-rule="evenodd" clip-rule="evenodd" d="M34.64 16.2046C34.64 15.5664 34.5827 14.9527 34.4764 14.3636H26V17.845H30.8436C30.635 18.97 30.0009 19.9232 29.0477 20.5614V22.8196H31.9564C33.6582 21.2527 34.64 18.9455 34.64 16.2046Z" fill="#4285F4"></path>
    <path data-v-44c9c65c="" fill-rule="evenodd" clip-rule="evenodd" d="M26 25C28.43 25 30.4673 24.1941 31.9564 22.8195L29.0477 20.5613C28.2418 21.1013 27.2109 21.4204 26 21.4204C23.6559 21.4204 21.6718 19.8372 20.9641 17.71H17.9573V20.0418C19.4382 22.9831 22.4818 25 26 25Z" fill="#34A853"></path>
    <path data-v-44c9c65c="" fill-rule="evenodd" clip-rule="evenodd" d="M20.9641 17.7099C20.7841 17.1699 20.6818 16.5931 20.6818 15.9999C20.6818 15.4068 20.7841 14.8299 20.9641 14.2899V11.9581H17.9573C17.3477 13.1731 17 14.5477 17 15.9999C17 17.4522 17.3477 18.8268 17.9573 20.0418L20.9641 17.7099Z" fill="#FBBC05"></path>
    <path data-v-44c9c65c="" fill-rule="evenodd" clip-rule="evenodd" d="M26 10.5795C27.3214 10.5795 28.5077 11.0336 29.4405 11.9255L32.0218 9.34409C30.4632 7.89182 28.4259 7 26 7C22.4818 7 19.4382 9.01682 17.9573 11.9582L20.9641 14.29C21.6718 12.1627 23.6559 10.5795 26 10.5795Z" fill="#EA4335"></path>
    <path data-v-44c9c65c="" d="M55.0176 20.4258C54.1426 20.9023 53.168 21.1406 52.0938 21.1406C50.8516 21.1406 49.8457 20.7539 49.0762 19.9805C48.3066 19.207 47.9219 18.1836 47.9219 16.9102C47.9219 15.6094 48.3418 14.543 49.1816 13.7109C50.0254 12.875 51.0957 12.457 52.3926 12.457C53.3262 12.457 54.1113 12.5938 54.748 12.8672V14.3027C54.1035 13.873 53.3359 13.6582 52.4453 13.6582C51.5508 13.6582 50.8164 13.9531 50.2422 14.543C49.6719 15.1328 49.3867 15.8965 49.3867 16.834C49.3867 17.7988 49.6328 18.5586 50.125 19.1133C50.6172 19.6641 51.2852 19.9395 52.1289 19.9395C52.707 19.9395 53.207 19.8281 53.6289 19.6055V17.6074H51.8594V16.4355H55.0176V20.4258ZM59.3359 21.1406C58.4102 21.1406 57.6699 20.8613 57.1152 20.3027C56.5645 19.7402 56.2891 18.9961 56.2891 18.0703C56.2891 17.0625 56.5762 16.2754 57.1504 15.709C57.7285 15.1426 58.5059 14.8594 59.4824 14.8594C60.4199 14.8594 61.1504 15.1348 61.6738 15.6855C62.1973 16.2363 62.459 17 62.459 17.9766C62.459 18.9336 62.1758 19.7012 61.6094 20.2793C61.0469 20.8535 60.2891 21.1406 59.3359 21.1406ZM59.4004 15.9434C58.8691 15.9434 58.4492 16.1289 58.1406 16.5C57.832 16.8711 57.6777 17.3828 57.6777 18.0352C57.6777 18.6641 57.834 19.1602 58.1465 19.5234C58.459 19.8828 58.877 20.0625 59.4004 20.0625C59.9355 20.0625 60.3457 19.8848 60.6309 19.5293C60.9199 19.1738 61.0645 18.668 61.0645 18.0117C61.0645 17.3516 60.9199 16.8418 60.6309 16.4824C60.3457 16.123 59.9355 15.9434 59.4004 15.9434ZM66.5078 21.1406C65.582 21.1406 64.8418 20.8613 64.2871 20.3027C63.7363 19.7402 63.4609 18.9961 63.4609 18.0703C63.4609 17.0625 63.748 16.2754 64.3223 15.709C64.9004 15.1426 65.6777 14.8594 66.6543 14.8594C67.5918 14.8594 68.3223 15.1348 68.8457 15.6855C69.3691 16.2363 69.6309 17 69.6309 17.9766C69.6309 18.9336 69.3477 19.7012 68.7812 20.2793C68.2188 20.8535 67.4609 21.1406 66.5078 21.1406ZM66.5723 15.9434C66.041 15.9434 65.6211 16.1289 65.3125 16.5C65.0039 16.8711 64.8496 17.3828 64.8496 18.0352C64.8496 18.6641 65.0059 19.1602 65.3184 19.5234C65.6309 19.8828 66.0488 20.0625 66.5723 20.0625C67.1074 20.0625 67.5176 19.8848 67.8027 19.5293C68.0918 19.1738 68.2363 18.668 68.2363 18.0117C68.2363 17.3516 68.0918 16.8418 67.8027 16.4824C67.5176 16.123 67.1074 15.9434 66.5723 15.9434ZM76.4805 20.5195C76.4805 22.7227 75.373 23.8242 73.1582 23.8242C72.377 23.8242 71.6953 23.6934 71.1133 23.4316V22.1895C71.7695 22.5645 72.3926 22.752 72.9824 22.752C74.4082 22.752 75.1211 22.0508 75.1211 20.6484V19.9922H75.0977C74.6484 20.7578 73.9727 21.1406 73.0703 21.1406C72.3398 21.1406 71.75 20.875 71.3008 20.3438C70.8555 19.8086 70.6328 19.0918 70.6328 18.1934C70.6328 17.1738 70.873 16.3633 71.3535 15.7617C71.834 15.1602 72.4941 14.8594 73.334 14.8594C74.127 14.8594 74.7148 15.1836 75.0977 15.832H75.1211V15H76.4805V20.5195ZM75.1328 18.252V17.4727C75.1328 17.0508 74.9922 16.6914 74.7109 16.3945C74.4336 16.0938 74.0859 15.9434 73.668 15.9434C73.1523 15.9434 72.748 16.1348 72.4551 16.5176C72.166 16.8965 72.0215 17.4277 72.0215 18.1113C72.0215 18.7012 72.1602 19.1738 72.4375 19.5293C72.7188 19.8809 73.0898 20.0566 73.5508 20.0566C74.0195 20.0566 74.4004 19.8887 74.6934 19.5527C74.9863 19.2129 75.1328 18.7793 75.1328 18.252ZM79.6152 21H78.25V12.1172H79.6152V21ZM86.4707 18.3691H82.3809C82.3965 18.9238 82.5664 19.3516 82.8906 19.6523C83.2188 19.9531 83.668 20.1035 84.2383 20.1035C84.8789 20.1035 85.4668 19.9121 86.002 19.5293V20.625C85.4551 20.9688 84.7324 21.1406 83.834 21.1406C82.9512 21.1406 82.2578 20.8691 81.7539 20.3262C81.2539 19.7793 81.0039 19.0117 81.0039 18.0234C81.0039 17.0898 81.2793 16.3301 81.8301 15.7441C82.3848 15.1543 83.0723 14.8594 83.8926 14.8594C84.7129 14.8594 85.3477 15.123 85.7969 15.6504C86.2461 16.1777 86.4707 16.9102 86.4707 17.8477V18.3691ZM85.1582 17.4082C85.1543 16.9199 85.0391 16.541 84.8125 16.2715C84.5859 15.998 84.2734 15.8613 83.875 15.8613C83.4844 15.8613 83.1523 16.0039 82.8789 16.2891C82.6094 16.5742 82.4434 16.9473 82.3809 17.4082H85.1582Z" fill="black" fill-opacity="0.48"></path>
    <rect data-v-44c9c65c="" x="1" y="1" width="102" height="30" rx="15" stroke="#EBEBEB" stroke-width="2"></rect>
</svg>