<svg data-v-86e76462="" data-v-5b5e5e08="" name="Twitter" width="32" height="32" viewBox="0 0 32 32" fill="none" xmlns="http://www.w3.org/2000/svg">
    <path data-v-86e76462="" name="Twitter" fill-rule="evenodd" clip-rule="evenodd" d="M32 16C32 24.8366 24.8366 32 16 32C7.16344 32 0 24.8366 0 16C0 7.16344 7.16344 0 16 0C24.8366 0 32 7.16344 32 16ZM22.879 11.3132C23.626 11.2239 24.3377 11.0254 25 10.7317C24.5049 11.4722 23.8787 12.1227 23.1573 12.6433C23.1644 12.8017 23.1679 12.9609 23.1679 13.1211C23.1679 18.0011 19.4535 23.6282 12.6609 23.6282C10.5754 23.6282 8.63428 23.0169 7 21.9691C7.28891 22.0032 7.58288 22.0207 7.88094 22.0207C9.61108 22.0207 11.2034 21.4303 12.4673 20.4398C10.8513 20.41 9.4875 19.3423 9.0176 17.8752C9.24304 17.9183 9.4744 17.9414 9.71235 17.9414C10.0492 17.9414 10.3754 17.8963 10.6853 17.8119C8.99594 17.4727 7.72299 15.9801 7.72299 14.1908C7.72299 14.1753 7.72299 14.1598 7.72325 14.1444C8.2212 14.421 8.79058 14.5871 9.39598 14.6063C8.40509 13.9441 7.75308 12.8137 7.75308 11.5325C7.75308 10.8558 7.93519 10.2214 8.25307 9.67598C10.0745 11.9102 12.7956 13.3804 15.8648 13.5344C15.8018 13.2641 15.7691 12.9823 15.7691 12.6928C15.7691 10.6534 17.4226 9 19.4621 9C20.5243 9 21.484 9.4485 22.1577 10.1662C22.9989 10.0006 23.7892 9.69323 24.5027 9.27008C24.227 10.1324 23.6415 10.8561 22.879 11.3132Z" fill="#1DA1F2"></path><path data-v-86e76462="" name="Twitter" fill-rule="evenodd" clip-rule="evenodd" d="M25 10.7317C24.3377 11.0254 23.626 11.2239 22.879 11.3132C23.6415 10.8561 24.227 10.1324 24.5027 9.27008C23.7892 9.69323 22.9989 10.0006 22.1577 10.1662C21.484 9.4485 20.5243 9 19.4621 9C17.4226 9 15.7691 10.6534 15.7691 12.6928C15.7691 12.9823 15.8018 13.2641 15.8648 13.5344C12.7956 13.3804 10.0745 11.9102 8.25307 9.67598C7.93519 10.2214 7.75308 10.8558 7.75308 11.5325C7.75308 12.8137 8.40509 13.9441 9.39598 14.6063C8.79058 14.5871 8.2212 14.421 7.72325 14.1444C7.72299 14.1598 7.72299 14.1753 7.72299 14.1908C7.72299 15.9801 8.99594 17.4727 10.6853 17.8119C10.3754 17.8963 10.0492 17.9414 9.71234 17.9414C9.4744 17.9414 9.24304 17.9183 9.0176 17.8752C9.4875 19.3423 10.8513 20.41 12.4673 20.4398C11.2034 21.4303 9.61108 22.0207 7.88094 22.0207C7.58288 22.0207 7.28891 22.0032 7 21.9691C8.63428 23.0169 10.5754 23.6282 12.6609 23.6282C19.4535 23.6282 23.1679 18.0011 23.1679 13.1211C23.1679 12.9609 23.1644 12.8017 23.1573 12.6433C23.8787 12.1227 24.5049 11.4722 25 10.7317Z" fill="white"></path>
</svg>