<svg xmlns="http://www.w3.org/2000/svg" width="40" height="40" viewBox="0 0 40 40" fill="none">
    <rect width="40" height="40" rx="20" fill="#F0F3FA"/>
    <path fill-rule="evenodd" clip-rule="evenodd" d="M27.4246 12.5755C25.6672 10.8182 22.818 10.8182 21.0606 12.5755L19.4696 14.1665C17.893 15.7432 17.7309 18.1988 18.9833 19.9562L15.5806 23.3589L16.6412 24.4196L19.9331 21.1276C20.6126 22.2781 20.4581 23.7847 19.4696 24.7731L17.8787 26.3641C16.7071 27.5357 14.8076 27.5357 13.636 26.3641C12.4644 25.1925 12.4644 23.293 13.636 22.1215L14.5518 21.2057C15.0409 20.7166 15.7259 20.4763 16.4134 20.5527L16.5584 20.5688L16.724 19.078L16.579 19.0619C15.4386 18.9351 14.3025 19.3337 13.4911 20.145L12.5754 21.0608C10.818 22.8182 10.818 25.6674 12.5754 27.4248C14.3327 29.1821 17.182 29.1821 18.9393 27.4248L20.5303 25.8338C22.107 24.2571 22.2691 21.8016 21.0166 20.0442L24.4194 16.6414L23.3587 15.5807L20.0668 18.8727C19.3874 17.7222 19.5419 16.2156 20.5303 15.2272L22.1213 13.6362C23.2929 12.4646 25.1924 12.4646 26.3639 13.6362C27.5355 14.8078 27.5355 16.7073 26.3639 17.8788L25.4482 18.7946C24.959 19.2838 24.2741 19.524 23.5866 19.4476L23.4416 19.4315L23.2759 20.9223L23.4209 20.9385C24.5613 21.0652 25.6975 20.6666 26.5088 19.8553L27.4246 18.9395C29.182 17.1821 29.182 14.3329 27.4246 12.5755Z" fill="#272B33" fill-opacity="0.8"/>
</svg>